# Blender v2.92.0 OBJ File: '3x4case.blend'
# www.blender.org
mtllib 3x4case.mtl
o Cube
v 3.000000 -0.200000 -4.000000
v 3.000000 -0.500000 -4.000000
v 3.000000 -0.200000 4.000000
v 3.000000 -0.500000 4.000000
v -3.000000 -0.200000 -4.000000
v -3.000000 -0.500000 -4.000000
v -3.000000 -0.200000 4.000000
v -3.000000 -0.500000 4.000000
v 3.500000 -0.200000 -4.000000
v 3.500000 -0.500000 -4.000000
v 3.500000 -0.200000 4.000000
v 3.500000 -0.500000 4.000000
v -3.500000 -0.500000 -4.000000
v -3.500000 -0.500000 4.000000
v -3.500000 -0.200000 4.000000
v -3.500000 -0.200000 -4.000000
v 3.000000 -0.500000 -4.500000
v -3.000000 -0.500000 -4.500000
v 3.000000 -0.200000 -4.500000
v -3.000000 -0.200000 -4.500000
v -3.000000 -0.500000 4.500000
v -3.000000 -0.200000 4.500000
v 3.000000 -0.200000 4.500000
v 3.000000 -0.500000 4.500000
v 3.500000 0.200000 -4.000000
v 3.500000 0.200000 4.000000
v 3.500000 -0.200000 -4.500000
v 3.500000 -0.500000 -4.500000
v -3.000000 0.200000 -4.000000
v 3.000000 0.200000 -4.000000
v -3.500000 -0.200000 -4.500000
v -3.500000 -0.500000 -4.500000
v -3.000000 0.200000 4.000000
v 3.000000 0.200000 4.000000
v -3.500000 -0.500000 4.500000
v -3.500000 -0.200000 4.500000
v -3.500000 0.200000 -4.000000
v -3.500000 0.200000 4.000000
v 3.500000 -0.200000 4.500000
v 3.500000 -0.500000 4.500000
v -3.000000 0.200000 -4.500000
v 3.000000 0.200000 -4.500000
v 3.000000 0.200000 4.500000
v -3.000000 0.200000 4.500000
v 3.500000 0.200000 -4.500000
v -3.500000 0.200000 -4.500000
v -3.500000 0.200000 4.500000
v 3.500000 0.200000 4.500000
vt 0.000000 0.529412
vt 0.352941 0.529412
vt 0.352941 1.000000
vt 0.000000 1.000000
vt 0.029412 0.500000
vt 0.382353 0.500000
vt 0.382353 0.529412
vt 0.029412 0.529412
vt 0.441176 0.029412
vt 0.441176 0.500000
vt 0.411765 0.500000
vt 0.411765 0.029412
vt 0.794117 0.029412
vt 0.794117 0.500000
vt 0.482353 0.529412
vt 0.500000 0.529412
vt 0.500000 0.558824
vt 0.482353 0.558824
vt 0.382353 0.029412
vt 0.029412 0.029412
vt 0.029412 0.000000
vt 0.382353 0.000000
vt 0.905882 0.500000
vt 0.888235 0.500000
vt 0.888235 0.029412
vt 0.905882 0.029412
vt 0.552941 0.558824
vt 0.535294 0.558824
vt 0.535294 0.529412
vt 0.552941 0.529412
vt 0.823529 0.029412
vt 0.823529 0.500000
vt 0.376471 0.558824
vt 0.376471 0.911765
vt 0.352941 0.911765
vt 0.352941 0.558824
vt 0.864706 0.500000
vt 0.847059 0.500000
vt 0.847059 0.029412
vt 0.864706 0.029412
vt 0.417647 0.558824
vt 0.417647 0.911765
vt 0.394118 0.911765
vt 0.394118 0.558824
vt 0.500000 0.529412
vt 0.517647 0.529412
vt 0.517647 0.558824
vt 0.500000 0.558824
vt 0.535294 0.558824
vt 0.517647 0.558824
vt 0.517647 0.529412
vt 0.535294 0.529412
vt 0.394118 0.911765
vt 0.394118 0.558824
vt 0.441176 0.000000
vt 0.411765 0.000000
vt 0.794117 0.000000
vt 0.417647 0.941176
vt 0.394118 0.941176
vt 0.435294 0.911765
vt 0.435294 0.558824
vt 0.441176 0.529412
vt 0.411765 0.529412
vt 0.794117 0.529412
vt 0.823529 0.500000
vt 0.823529 0.029412
vt 0.905882 0.529412
vt 0.888235 0.529412
vt 0.417647 0.529412
vt 0.394118 0.529412
vt 0.376471 0.529412
vt 0.394118 0.529412
vt 0.823529 0.000000
vt 0.847059 0.000000
vt 0.864706 0.000000
vt 0.411765 0.029412
vt 0.411765 0.500000
vt 0.376471 0.941176
vt 0.352941 0.941176
vt 0.394118 0.941176
vt 0.864706 0.529412
vt 0.847059 0.529412
vt 0.000000 0.500000
vt 0.000000 0.029412
vt 0.435294 0.529412
vt 0.929412 0.470588
vt 0.929412 0.941176
vt 0.905882 0.941176
vt 0.905882 0.470588
vt 0.888235 0.000000
vt 0.905882 0.000000
vt 0.435294 0.941176
vt 0.864706 0.500000
vt 0.864706 0.029412
vt 0.823529 0.529412
vt 0.000000 0.000000
vt 0.411765 0.000000
vt 0.411765 0.529412
vt 0.000000 0.529412
vt 0.929412 0.000000
vt 0.929412 0.470588
vt 0.905882 0.470588
vt 0.905882 0.000000
vt 0.458824 0.529412
vt 0.458824 0.882353
vt 0.435294 0.882353
vt 0.435294 0.529412
vt 0.864706 0.000000
vt 0.864706 0.529412
vt 0.823529 0.000000
vt 0.352941 0.529412
vt 0.823529 0.529412
vt 0.482353 0.882353
vt 0.458824 0.882353
vt 0.458824 0.529412
vn 0.0000 1.0000 0.0000
vn 0.0000 -1.0000 0.0000
vn 0.0000 0.0000 1.0000
vn 1.0000 0.0000 0.0000
vn 0.0000 0.0000 -1.0000
vn -1.0000 0.0000 0.0000
usemtl Material
s off
f 1/1/1 5/2/1 7/3/1 3/4/1
f 34/5/1 33/6/1 44/7/1 43/8/1
f 6/9/2 8/10/2 14/11/2 13/12/2
f 6/9/2 2/13/2 4/14/2 8/10/2
f 3/15/3 4/16/3 12/17/3 11/18/3
f 29/19/1 30/20/1 42/21/1 41/22/1
f 10/23/4 9/24/4 11/25/4 12/26/4
f 2/27/5 1/28/5 9/29/5 10/30/5
f 4/14/2 2/13/2 10/31/2 12/32/2
f 19/33/5 20/34/5 41/35/5 42/36/5
f 14/37/6 15/38/6 16/39/6 13/40/6
f 22/41/3 23/42/3 43/43/3 44/44/3
f 5/45/5 6/46/5 13/47/5 16/48/5
f 8/49/3 7/50/3 15/51/3 14/52/3
f 18/53/5 20/34/5 19/33/5 17/54/5
f 18/55/2 6/9/2 13/12/2 32/56/2
f 2/13/2 6/9/2 18/55/2 17/57/2
f 23/42/3 39/58/3 48/59/3 43/43/3
f 24/60/3 23/42/3 22/41/3 21/61/3
f 8/10/2 21/62/2 35/63/2 14/11/2
f 8/10/2 4/14/2 24/64/2 21/62/2
f 16/39/6 15/38/6 38/65/6 37/66/6
f 9/24/4 10/23/4 28/67/4 27/68/4
f 36/69/3 22/41/3 44/44/3 47/70/3
f 17/54/5 19/33/5 27/71/5 28/72/5
f 2/13/2 17/57/2 28/73/2 10/31/2
f 13/40/6 16/39/6 31/74/6 32/75/6
f 33/6/1 29/19/1 37/76/1 38/77/1
f 20/34/5 31/78/5 46/79/5 41/35/5
f 20/34/5 18/53/5 32/80/5 31/78/5
f 15/38/6 14/37/6 35/81/6 36/82/6
f 30/20/1 34/5/1 26/83/1 25/84/1
f 21/61/3 22/41/3 36/69/3 35/85/3
f 1/86/6 3/87/6 34/88/6 30/89/6
f 12/26/4 11/25/4 39/90/4 40/91/4
f 23/42/3 24/60/3 40/92/3 39/58/3
f 11/25/4 9/24/4 25/93/4 26/94/4
f 24/64/2 4/14/2 12/32/2 40/95/2
f 42/21/1 30/20/1 25/84/1 45/96/1
f 29/19/1 41/22/1 46/97/1 37/76/1
f 44/7/1 33/6/1 38/77/1 47/98/1
f 34/5/1 43/8/1 48/99/1 26/83/1
f 7/100/4 5/101/4 29/102/4 33/103/4
f 5/104/3 1/105/3 30/106/3 29/107/3
f 39/90/4 11/25/4 26/94/4 48/108/4
f 9/24/4 27/68/4 45/109/4 25/93/4
f 31/74/6 16/39/6 37/66/6 46/110/6
f 27/71/5 19/33/5 42/36/5 45/111/5
f 15/38/6 36/82/6 47/112/6 38/65/6
f 3/15/5 7/113/5 33/114/5 34/115/5
